<svg width="32" height="32" viewBox="0 0 32 32" fill="none" xmlns="http://www.w3.org/2000/svg">
<path d="M10.6668 17.3333L16.5612 22.0488C16.9891 22.3911 17.6128 22.3253 17.9598 21.9012L29.3335 8" stroke="#B12025" stroke-width="2" stroke-linecap="round"/>
<path fill-rule="evenodd" clip-rule="evenodd" d="M14.1352 16.7473L20.774 8.63327C21.1237 8.20582 21.0607 7.5758 20.6333 7.22607C20.2058 6.87635 19.5758 6.93935 19.2261 7.36679L12.5987 15.4669L14.1352 16.7473ZM10.9689 20.6173L9.43238 19.3369L7.83311 21.2915L3.26669 17.8667C2.82486 17.5353 2.19805 17.6249 1.86669 18.0667C1.53531 18.5085 1.62486 19.1353 2.06669 19.4667L6.63311 22.8915C7.49049 23.5346 8.70236 23.3875 9.38102 22.558L10.9689 20.6173Z" fill="#B12025"/>
</svg>
