<svg width="535" height="372" viewBox="0 0 535 372" fill="none" xmlns="http://www.w3.org/2000/svg">
<g clip-path="url(#clip0_13_1041)">
<path d="M101.497 79.8596C118.372 79.8596 132.052 66.1574 132.052 49.2548C132.052 32.3522 118.372 18.6499 101.497 18.6499C84.6219 18.6499 70.9418 32.3522 70.9418 49.2548C70.9418 66.1574 84.6219 79.8596 101.497 79.8596Z" fill="#FF6584"/>
<path d="M250.16 164.081C250.16 236.295 207.3 261.509 154.429 261.509C101.558 261.509 58.6972 236.295 58.6972 164.081C58.6972 91.8673 154.429 0 154.429 0C154.429 0 250.16 91.8673 250.16 164.081Z" fill="#F2F2F2"/>
<path d="M150.941 250.463L151.922 190.026L192.725 115.258L152.076 180.546L152.516 153.371L180.638 99.2769L152.633 146.18L153.425 97.3048L183.538 54.239L153.55 89.6191L154.045 0L150.933 118.64L151.188 113.745L120.573 66.8066L150.698 123.141L147.845 177.725L147.76 176.277L112.465 126.881L147.653 181.395L147.296 188.221L147.232 188.324L147.262 188.885L140.024 327.371H149.694L150.854 255.84L185.956 201.459L150.941 250.463Z" fill="#3F3D56"/>
<path d="M535 193.658C535 252.768 499.917 273.407 456.639 273.407C413.362 273.407 378.279 252.768 378.279 193.658C378.279 134.547 456.639 59.3496 456.639 59.3496C456.639 59.3496 535 134.547 535 193.658Z" fill="#F2F2F2"/>
<path d="M453.785 264.365L454.587 214.895L487.986 153.694L454.713 207.135L455.074 184.891L478.093 140.612L455.169 179.005L455.818 138.998L480.467 103.747L455.92 132.708L456.326 59.3496L453.778 156.462L453.987 152.456L428.926 114.034L453.585 160.146L451.25 204.826L451.181 203.64L422.29 163.207L451.093 207.83L450.801 213.418L450.749 213.502L450.773 213.961L444.848 327.318H452.764L453.713 268.767L482.446 224.253L453.785 264.365Z" fill="#3F3D56"/>
<path d="M264.777 338.812C411.009 338.812 529.554 332.809 529.554 325.406C529.554 318.002 411.009 312 264.777 312C118.545 312 0 318.002 0 325.406C0 332.809 118.545 338.812 264.777 338.812Z" fill="#3F3D56"/>
<path d="M426.076 349.851C451.123 349.851 471.427 348.823 471.427 347.555C471.427 346.287 451.123 345.259 426.076 345.259C401.03 345.259 380.726 346.287 380.726 347.555C380.726 348.823 401.03 349.851 426.076 349.851Z" fill="#3F3D56"/>
<path d="M261.973 372C287.019 372 307.323 370.972 307.323 369.704C307.323 368.436 287.019 367.408 261.973 367.408C236.927 367.408 216.623 368.436 216.623 369.704C216.623 370.972 236.927 372 261.973 372Z" fill="#3F3D56"/>
<path d="M137.472 356.378C194.693 356.378 241.08 354.03 241.08 351.133C241.08 348.235 194.693 345.887 137.472 345.887C80.2508 345.887 33.8638 348.235 33.8638 351.133C33.8638 354.03 80.2508 356.378 137.472 356.378Z" fill="#3F3D56"/>
<path d="M46.3503 308.568C67.1807 308.568 84.067 291.655 84.067 270.791C84.067 249.926 67.1807 233.013 46.3503 233.013C25.52 233.013 8.63367 249.926 8.63367 270.791C8.63367 291.655 25.52 308.568 46.3503 308.568Z" fill="#2F2E41"/>
<path d="M40.2729 300.37L28.8154 300.234L28.5735 320.796L40.031 320.931L40.2729 300.37Z" fill="#2F2E41"/>
<path d="M63.1877 300.64L51.7303 300.505L51.4884 321.066L62.9458 321.201L63.1877 300.64Z" fill="#2F2E41"/>
<path d="M47.6665 321.26C47.6898 319.279 43.4339 317.623 38.1608 317.561C32.8877 317.499 28.5941 319.054 28.5708 321.034C28.5475 323.015 32.8033 324.671 38.0764 324.733C43.3496 324.796 47.6432 323.24 47.6665 321.26Z" fill="#2F2E41"/>
<path d="M70.5869 321.052C70.6102 319.072 66.3544 317.416 61.0813 317.353C55.8081 317.291 51.5145 318.846 51.4912 320.827C51.4679 322.807 55.7238 324.464 60.9969 324.526C66.27 324.588 70.5636 323.033 70.5869 321.052Z" fill="#2F2E41"/>
<path d="M47.4176 274.15C54.5368 274.15 60.3081 268.369 60.3081 261.239C60.3081 254.108 54.5368 248.327 47.4176 248.327C40.2984 248.327 34.5271 254.108 34.5271 261.239C34.5271 268.369 40.2984 274.15 47.4176 274.15Z" fill="white"/>
<path d="M47.4176 265.542C49.7907 265.542 51.7145 263.615 51.7145 261.238C51.7145 258.861 49.7907 256.935 47.4176 256.935C45.0445 256.935 43.1208 258.861 43.1208 261.238C43.1208 263.615 45.0445 265.542 47.4176 265.542Z" fill="#3F3D56"/>
<path d="M10.1797 235.229C7.29513 221.533 17.1919 207.845 32.2847 204.656C47.3776 201.467 61.9511 209.984 64.8356 223.68C67.7202 237.377 57.6846 242.297 42.5918 245.486C27.4989 248.675 13.0642 248.925 10.1797 235.229Z" fill="#B12025"/>
<path d="M103.884 291.866C103.884 318.203 88.2533 327.4 68.97 327.4C68.5233 327.4 68.0773 327.395 67.632 327.385C66.7386 327.365 65.8536 327.323 64.9793 327.263C47.5765 326.029 34.0558 316.36 34.0558 291.866C34.0558 266.517 66.3961 234.532 68.8254 232.165L68.8296 232.16C68.9232 232.069 68.97 232.024 68.97 232.024C68.97 232.024 103.884 265.529 103.884 291.866Z" fill="#B12025"/>
<path d="M67.698 323.37L80.4677 305.498L67.666 325.333L67.632 327.385C66.7386 327.365 65.8536 327.323 64.9793 327.263L66.3557 300.913L66.345 300.708L66.3684 300.67L66.4982 298.181L53.6646 278.298L66.5386 296.315L66.5684 296.843L67.6086 276.934L56.6215 256.388L67.7426 273.44L68.8254 232.165L68.8296 232.024V232.16L68.6488 264.709L79.587 251.805L68.6041 267.512L68.3148 285.338L78.5277 268.231L68.2723 287.961L68.1107 297.87L82.9374 274.06L68.0553 301.328L67.698 323.37Z" fill="#3F3D56"/>
<path d="M340.159 308.16C360.989 308.16 377.876 291.246 377.876 270.382C377.876 249.518 360.989 232.604 340.159 232.604C319.329 232.604 302.442 249.518 302.442 270.382C302.442 291.246 319.329 308.16 340.159 308.16Z" fill="#2F2E41"/>
<path d="M343.378 300.408L332.426 303.78L338.456 323.435L349.409 320.064L343.378 300.408Z" fill="#2F2E41"/>
<path d="M365.283 293.668L354.33 297.039L360.361 316.694L371.314 313.323L365.283 293.668Z" fill="#2F2E41"/>
<path d="M348.705 324.282C353.746 322.731 357.362 319.938 356.781 318.044C356.2 316.151 351.643 315.874 346.602 317.426C341.561 318.977 337.945 321.77 338.526 323.664C339.107 325.557 343.665 325.834 348.705 324.282Z" fill="#2F2E41"/>
<path d="M370.471 317.082C375.511 315.53 379.127 312.738 378.546 310.844C377.965 308.951 373.408 308.674 368.367 310.226C363.326 311.777 359.711 314.57 360.291 316.463C360.872 318.357 365.43 318.634 370.471 317.082Z" fill="#2F2E41"/>
<path d="M338.267 273.871C345.386 273.871 351.157 268.09 351.157 260.959C351.157 253.828 345.386 248.048 338.267 248.048C331.147 248.048 325.376 253.828 325.376 260.959C325.376 268.09 331.147 273.871 338.267 273.871Z" fill="white"/>
<path d="M338.267 265.263C340.64 265.263 342.564 263.336 342.564 260.959C342.564 258.582 340.64 256.655 338.267 256.655C335.894 256.655 333.97 258.582 333.97 260.959C333.97 263.336 335.894 265.263 338.267 265.263Z" fill="#3F3D56"/>
<path d="M294.883 247.565C287.965 235.403 293.222 219.344 306.625 211.696C320.027 204.048 336.5 207.707 343.418 219.869C350.336 232.032 342.276 239.783 328.874 247.431C315.471 255.079 301.801 259.727 294.883 247.565Z" fill="#B12025"/>
<path d="M272.893 287.043C272.893 311.22 258.545 319.661 240.843 319.661C240.433 319.661 240.024 319.657 239.615 319.648C238.795 319.63 237.983 319.591 237.18 319.536C221.205 318.404 208.794 309.528 208.794 287.043C208.794 263.774 238.481 234.413 240.711 232.24L240.715 232.236C240.8 232.152 240.843 232.111 240.843 232.111C240.843 232.111 272.893 262.867 272.893 287.043Z" fill="#B12025"/>
<path d="M239.676 315.963L251.398 299.557L239.646 317.764L239.615 319.648C238.795 319.63 237.983 319.591 237.18 319.536L238.444 295.348L238.434 295.16L238.455 295.125L238.574 292.84L226.794 274.588L238.612 291.127L238.639 291.612L239.594 273.337L229.508 254.476L239.717 270.129L240.711 232.24L240.715 232.111V232.236L240.549 262.114L250.589 250.269L240.508 264.688L240.242 281.051L249.617 265.347L240.203 283.458L240.055 292.555L253.665 270.698L240.004 295.729L239.676 315.963Z" fill="#3F3D56"/>
<path d="M398.934 297.126C398.934 323.464 383.303 332.66 364.019 332.66C363.573 332.66 363.127 332.655 362.681 332.645C361.788 332.626 360.903 332.583 360.029 332.523C342.626 331.29 329.105 321.621 329.105 297.126C329.105 271.778 361.445 239.792 363.875 237.425L363.879 237.421C363.973 237.329 364.019 237.284 364.019 237.284C364.019 237.284 398.934 270.789 398.934 297.126Z" fill="#B12025"/>
<path d="M362.747 328.631L375.517 310.758L362.715 330.593L362.681 332.645C361.788 332.626 360.903 332.583 360.029 332.523L361.405 306.173L361.394 305.969L361.418 305.93L361.548 303.442L348.714 283.558L361.588 301.575L361.618 302.104L362.658 282.195L351.671 261.648L362.792 278.7L363.875 237.425L363.879 237.284V237.421L363.698 269.969L374.636 257.065L363.654 272.773L363.364 290.598L373.577 273.491L363.322 293.221L363.16 303.131L377.987 279.32L363.105 306.589L362.747 328.631Z" fill="#3F3D56"/>
<path d="M342.554 292.997C343.956 290.038 337.463 284.015 328.052 279.545C318.642 275.075 309.877 273.849 308.476 276.808C307.075 279.767 313.568 285.79 322.978 290.26C332.389 294.731 341.153 295.956 342.554 292.997Z" fill="#2F2E41"/>
<path d="M52.2675 289.539C53.4839 286.499 46.633 280.889 36.9655 277.007C27.298 273.126 18.4748 272.444 17.2583 275.484C16.0419 278.524 22.8928 284.135 32.5603 288.016C42.2278 291.897 51.051 292.579 52.2675 289.539Z" fill="#2F2E41"/>
</g>
<defs>
<clipPath id="clip0_13_1041">
<rect width="535" height="372" fill="white"/>
</clipPath>
</defs>
</svg>
