<svg width="25" height="24" viewBox="0 0 25 24" fill="none" xmlns="http://www.w3.org/2000/svg">
<path d="M4.16498 8L4.16498 16L6.16498 16L6.16498 8L4.16498 8Z" fill="#B8BFCC"/>
<path d="M5.37299 2.31202L8.3358 6.75624C8.69023 7.28789 8.30912 8 7.67016 8L2.65979 8C2.02084 8 1.63972 7.28788 1.99415 6.75624L4.95697 2.31202C5.05592 2.16359 5.27404 2.16359 5.37299 2.31202Z" fill="#B8BFCC"/>
<path d="M5.37299 21.688L8.3358 17.2438C8.69023 16.7121 8.30912 16 7.67016 16L2.65979 16C2.02084 16 1.63972 16.7121 1.99415 17.2438L4.95697 21.688C5.05592 21.8364 5.27404 21.8364 5.37299 21.688Z" fill="#B8BFCC"/>
<path d="M11.165 7H19.165" stroke="#B8BFCC" stroke-width="2" stroke-linecap="round"/>
<path d="M11.165 12H19.165" stroke="#B8BFCC" stroke-width="2" stroke-linecap="round"/>
<path d="M11.165 17H19.165" stroke="#B8BFCC" stroke-width="2" stroke-linecap="round"/>
</svg>
